<?xml version="1.0" encoding="UTF-8"?><svg id="Layer_1" xmlns="http://www.w3.org/2000/svg" viewBox="0 0 864 576"><defs><style>.cls-1{fill:#d245ff;}</style></defs><rect class="cls-1" x="393.19" y="441.79" width="60.41" height="60.41" transform="translate(-209.75 437.63) rotate(-45)"/><rect class="cls-1" x="359.62" y="293" width="133.69" height="133.69"/><rect class="cls-1" x="284.67" y="395.37" width="74.96" height="25.73" transform="translate(-194.31 347.36) rotate(-45)"/><rect class="cls-1" x="274.11" y="472.09" width="74.96" height="25.73" transform="translate(47.39 997.28) rotate(-120)"/><rect class="cls-1" x="492.08" y="394.61" width="74.96" height="25.73" transform="translate(615.89 1070.05) rotate(-135)"/><rect class="cls-1" x="502.64" y="471.33" width="74.96" height="25.73" transform="translate(-149.27 709.86) rotate(-60)"/><rect class="cls-1" x="339.41" y="237.62" width="74.96" height="25.73" transform="translate(126.4 627.38) rotate(-90)"/><rect class="cls-1" x="339.41" y="160.62" width="74.96" height="25.73" transform="translate(203.4 550.38) rotate(-90)"/><rect class="cls-1" x="434.41" y="236.12" width="74.96" height="25.73" transform="translate(222.9 720.88) rotate(-90)"/><rect class="cls-1" x="434.41" y="159.12" width="74.96" height="25.73" transform="translate(299.9 643.88) rotate(-90)"/></svg>